<svg width="5" height="10" viewBox="0 0 5 10" fill="none" xmlns="http://www.w3.org/2000/svg">
<path d="M4.39052 5.26531L0.640521 9.01531C0.60568 9.05015 0.564317 9.07779 0.518795 9.09664C0.473272 9.1155 0.424482 9.1252 0.375208 9.1252C0.325935 9.1252 0.277145 9.1155 0.231622 9.09664C0.1861 9.07779 0.144737 9.05015 0.109896 9.01531C0.0750545 8.98047 0.0474169 8.9391 0.0285609 8.89358C0.00970488 8.84806 0 8.79927 0 8.75C0 8.70072 0.00970488 8.65193 0.0285609 8.60641C0.0474169 8.56089 0.0750545 8.51952 0.109896 8.48468L3.59505 4.99999L0.109896 1.51531C0.0395306 1.44494 -7.41418e-10 1.34951 0 1.24999C7.41419e-10 1.15048 0.0395306 1.05505 0.109896 0.984682C0.180261 0.914317 0.275697 0.874786 0.375208 0.874786C0.47472 0.874786 0.570156 0.914317 0.640521 0.984682L4.39052 4.73468C4.42539 4.76951 4.45305 4.81087 4.47192 4.85639C4.49079 4.90192 4.5005 4.95071 4.5005 4.99999C4.5005 5.04928 4.49079 5.09807 4.47192 5.1436C4.45305 5.18912 4.42539 5.23048 4.39052 5.26531Z" fill="#46A4F6"/>
</svg>
