<svg width="11" height="14" viewBox="0 0 11 14" fill="none" xmlns="http://www.w3.org/2000/svg">
<path d="M5.5 3.00008C5.00555 3.00008 4.5222 3.1467 4.11107 3.4214C3.69995 3.69611 3.37952 4.08655 3.1903 4.54337C3.00108 5.00018 2.95157 5.50285 3.04804 5.9878C3.1445 6.47275 3.3826 6.91821 3.73223 7.26784C4.08186 7.61747 4.52732 7.85558 5.01227 7.95204C5.49723 8.0485 5.99989 7.99899 6.45671 7.80978C6.91352 7.62056 7.30397 7.30012 7.57867 6.889C7.85338 6.47788 8 5.99453 8 5.50008C8 4.83704 7.73661 4.20115 7.26777 3.73231C6.79893 3.26347 6.16304 3.00008 5.5 3.00008ZM5.5 7.00008C5.20333 7.00008 4.91332 6.9121 4.66664 6.74728C4.41997 6.58246 4.22771 6.34819 4.11418 6.0741C4.00065 5.80001 3.97094 5.49841 4.02882 5.20744C4.0867 4.91647 4.22956 4.64919 4.43934 4.43942C4.64912 4.22964 4.91639 4.08678 5.20736 4.0289C5.49834 3.97102 5.79994 4.00073 6.07403 4.11426C6.34811 4.22779 6.58238 4.42005 6.7472 4.66672C6.91203 4.91339 7 5.2034 7 5.50008C7 5.8979 6.84196 6.27943 6.56066 6.56074C6.27936 6.84204 5.89782 7.00008 5.5 7.00008ZM5.5 7.62939e-05C4.04182 0.0017305 2.64383 0.581724 1.61274 1.61282C0.581648 2.64391 0.00165421 4.04189 0 5.50008C0 7.46258 0.906875 9.54258 2.625 11.5157C3.39701 12.4073 4.26591 13.2102 5.21562 13.9095C5.2997 13.9683 5.39985 13.9999 5.5025 13.9999C5.60515 13.9999 5.70531 13.9683 5.78938 13.9095C6.73734 13.2099 7.60455 12.407 8.375 11.5157C10.0906 9.54258 11 7.46258 11 5.50008C10.9983 4.04189 10.4184 2.64391 9.38726 1.61282C8.35617 0.581724 6.95818 0.0017305 5.5 7.62939e-05ZM5.5 12.8751C4.46688 12.0626 1 9.0782 1 5.50008C1 4.3066 1.47411 3.16201 2.31802 2.3181C3.16193 1.47418 4.30653 1.00008 5.5 1.00008C6.69347 1.00008 7.83807 1.47418 8.68198 2.3181C9.52589 3.16201 10 4.3066 10 5.50008C10 9.07695 6.53312 12.0626 5.5 12.8751Z" fill="#A1A1AA"/>
</svg>
