<svg width="24" height="24" viewBox="0 0 24 24" fill="none" xmlns="http://www.w3.org/2000/svg">
<path fill-rule="evenodd" clip-rule="evenodd" d="M2.30078 1L3.91745 20.6429L12.0008 23L20.0841 20.6429L21.7008 1H2.30078ZM6.74681 12.3928H14.8301L14.426 15.5357L12.001 16.3214L9.57598 15.5357L9.17181 13.5714H6.74681L7.15098 17.5L12.001 19.0714L16.851 17.5L17.6593 10.0357H12.8093L18.0635 8.07141L18.4676 5.32141H5.93848L6.34264 7.67855H12.8093L6.34264 9.64284L6.74681 12.3928Z" fill="#1172B8"/>
<path d="M12.001 2.57141H20.0843L18.4676 19.8571L12.001 21.8214V19.0714L16.851 17.5L17.6593 10.0357H12.8093L18.0635 8.07141L18.4676 5.32141H12.001V2.57141Z" fill="#33AADD"/>
<path d="M12.001 7.67855V7.92409L12.8093 7.67855H12.001Z" fill="#33AADD"/>
<path d="M12.001 12.3928V16.3214L14.426 15.5357L14.8301 12.3928H12.001Z" fill="#33AADD"/>
</svg>
