<svg width="24" height="24" viewBox="0 0 24 24" fill="none" xmlns="http://www.w3.org/2000/svg">
<path d="M13.4642 20H22.386C22.6694 20 22.9478 19.9261 23.1932 19.7857C23.4386 19.6452 23.6424 19.4432 23.784 19.2C23.9256 18.9567 24.0001 18.6808 24 18.3999C23.9999 18.1191 23.9251 17.8432 23.7833 17.6001L17.7916 7.31436C17.65 7.07116 17.4463 6.8692 17.201 6.72878C16.9556 6.58836 16.6773 6.51444 16.394 6.51444C16.1106 6.51444 15.8323 6.58836 15.587 6.72878C15.3416 6.8692 15.1379 7.07116 14.9962 7.31436L13.4642 9.94612L10.4688 4.79981C10.3271 4.55663 10.1233 4.35469 9.87784 4.2143C9.63244 4.07391 9.35408 4 9.07068 4C8.78732 4 8.50896 4.07391 8.26352 4.2143C8.01812 4.3547 7.81428 4.55663 7.67256 4.79981L0.216708 17.6001C0.0748681 17.8432 0.000120145 18.1191 1.44745e-07 18.3999C-0.000119855 18.6808 0.0743761 18.9567 0.216004 19.2C0.357632 19.4432 0.561396 19.6452 0.8068 19.7857C1.0522 19.9261 1.3306 20 1.61397 20H7.21436C9.43328 20 11.0696 19.034 12.1956 17.1494L14.9293 12.4572L16.3935 9.94612L20.7879 17.4889H14.9293L13.4642 20ZM7.12304 17.4863L3.2147 17.4854L9.07332 7.42897L11.9965 12.4572L10.0393 15.818C9.29156 17.0408 8.44204 17.4863 7.12304 17.4863Z" fill="#00DC82"/>
</svg>
