<svg width="24" height="24" viewBox="0 0 24 24" fill="none" xmlns="http://www.w3.org/2000/svg">
<path d="M21.6993 1L19.9321 20.7977L11.9882 23L4.0662 20.8008L2.30078 1H21.6993Z" fill="#E44D26"/>
<path d="M12 21.3166L18.4191 19.537L19.9293 2.61893H12V21.3166Z" fill="#F16529"/>
<path d="M8.564 7.47596H11.9995V5.04748H5.90998L6.56499 12.3913H11.9995V9.96277H8.78596L8.564 7.47596ZM9.11133 13.6055H6.6735L7.0137 17.4186L11.9883 18.7995L11.9995 18.7965V16.2698L11.9888 16.2726L9.28425 15.5423L9.11133 13.6055Z" fill="#EBEBEB"/>
<path d="M11.9916 12.3913H14.982L14.7001 15.5408L11.9915 16.2719V18.7984L16.9701 17.4186L17.5773 10.6149L17.6366 9.96277H11.9916V12.3913ZM11.9916 7.47596H17.8575L18.0749 5.04748H11.9916V7.47596Z" fill="white"/>
</svg>
