<svg width="24" height="24" viewBox="0 0 24 24" fill="none" xmlns="http://www.w3.org/2000/svg">
<g clip-path="url(#clip0_1_423)">
<path fill-rule="evenodd" clip-rule="evenodd" d="M14.1341 0.0056694C13.9612 0.0056694 13.7996 0.0425205 13.6522 0.0907105C13.9683 0.303313 14.1412 0.579696 14.2291 0.895766C14.2348 0.938286 14.2475 0.969468 14.2532 1.01341C14.2589 1.05734 14.2674 1.08711 14.2674 1.12679C14.2929 1.67247 14.1256 1.74051 14.0066 2.06225C13.8266 2.47753 13.8762 2.92399 14.0916 3.28117C14.1113 3.32898 14.136 3.37459 14.1653 3.41723C13.93 1.84964 15.2383 1.61295 15.4792 1.12396C15.4976 0.695919 15.1447 0.411032 14.8655 0.212603C14.599 0.0510246 14.3552 0 14.1341 0V0.0056694ZM16.1043 0.360007C16.0787 0.501742 16.0986 0.464891 16.0901 0.540011L16.0759 0.701589L16.0334 0.850411C16.0192 0.900018 16.0022 0.949625 15.9838 0.999232L15.9157 1.14097C15.8973 1.16648 15.8846 1.19057 15.8661 1.21467L15.8293 1.27136L15.7357 1.39467C15.6989 1.43152 15.6677 1.47546 15.6224 1.50806C15.577 1.54066 15.5487 1.58176 15.5047 1.61295C15.3743 1.71216 15.2255 1.78586 15.0894 1.87941C15.0469 1.91059 15.0044 1.9361 14.9661 1.97295C14.9242 2.00263 14.8848 2.03582 14.8485 2.07217C14.806 2.10902 14.7748 2.14587 14.7351 2.18981C14.6954 2.23374 14.6671 2.2706 14.6415 2.31312L14.5565 2.44351L14.4885 2.58525L14.4389 2.72698L14.3963 2.88289C14.3907 2.9084 14.3907 2.93959 14.3822 2.96368C14.3737 2.98778 14.3765 3.01329 14.368 3.03738L14.3623 3.19329C14.3623 3.23014 14.3623 3.26699 14.368 3.30668C14.368 3.35629 14.3737 3.40589 14.3864 3.46259C14.3992 3.51928 14.4048 3.5618 14.4176 3.61141L14.4672 3.76023C14.4814 3.79141 14.4984 3.8226 14.5097 3.84527L13.0839 3.29251L12.3653 3.10825L11.9741 3.0147C11.601 2.94034 11.2245 2.88453 10.8459 2.84746C10.8317 2.84746 10.8275 2.84179 10.8147 2.84179L9.70491 2.78509L8.89277 2.81628C8.51434 2.84179 8.13591 2.88998 7.75889 2.95234L7.47967 3.00195L6.92124 3.12526L6.64202 3.19896L6.37556 3.3166L6.17146 3.41015C6.15729 3.41582 6.14595 3.41582 6.14028 3.42432L5.96736 3.50936C5.94894 3.51503 5.93618 3.52353 5.92484 3.52779L5.73208 3.627C5.68956 3.64543 5.64704 3.66952 5.60877 3.68936C5.59035 3.70354 5.56625 3.71346 5.55208 3.72055L5.3905 3.81409C5.33917 3.84245 5.28949 3.87368 5.24168 3.90764L5.11837 3.99268L4.9823 4.09189L4.87742 4.17693C4.86325 4.1826 4.85191 4.19536 4.84057 4.20245L4.74702 4.28323C4.74135 4.29741 4.7286 4.30166 4.72151 4.30875L4.60812 4.41363L4.48481 4.53127L4.37993 4.64466C4.36576 4.65883 4.34875 4.67017 4.33741 4.68151C4.30411 4.72035 4.26911 4.75771 4.23252 4.79348C4.22685 4.80765 4.2141 4.81191 4.20701 4.82466L4.06528 4.97348L3.73078 5.29522C3.61739 5.39444 3.50117 5.48798 3.38353 5.56735L3.01219 5.80263C2.88888 5.87067 2.75706 5.93303 2.621 5.98689C2.48928 6.04292 2.35495 6.09259 2.21847 6.13571C1.95768 6.19241 1.69121 6.29729 1.4616 6.31572C1.412 6.31572 1.35672 6.32989 1.30569 6.33414L1.14979 6.37099L1.00096 6.42769C0.950221 6.44779 0.900547 6.4705 0.852143 6.49572C0.809622 6.5269 0.758598 6.55241 0.716077 6.58076C0.673557 6.60911 0.631036 6.64879 0.592768 6.68564C0.554499 6.72249 0.507726 6.75935 0.469458 6.79903L0.364574 6.92234C0.333392 6.97195 0.296541 7.01589 0.271029 7.06408C0.238591 7.10951 0.209686 7.15737 0.184571 7.20723L0.116538 7.36881L0.0598437 7.53039L0.028662 7.67921C0.0102364 7.75291 0.0102364 7.82803 0.00314967 7.86346C-0.00393708 7.8989 0.00314967 7.94567 0.00314967 7.98961C0.00194561 8.01666 0.00384784 8.04377 0.00881907 8.0704C0.0144885 8.11292 0.0229926 8.15119 0.0343314 8.18804L0.0768519 8.30142C0.0952775 8.34394 0.119372 8.38221 0.144885 8.41906L0.225674 8.53245L0.330558 8.63167C0.36689 8.66801 0.406245 8.7012 0.448198 8.73088C0.59702 8.86128 0.632453 8.9038 0.82663 9.00301C0.857812 9.02144 0.888994 9.03419 0.925845 9.05262C0.944271 9.07104 0.944271 9.07671 0.951357 9.08947C0.957027 9.13908 0.969783 9.18869 0.982539 9.23829C0.994375 9.28934 1.01098 9.33917 1.03215 9.38711L1.08175 9.5005C1.08742 9.51468 1.09593 9.52602 1.10018 9.53168L1.17388 9.66775L1.26743 9.79815L1.37231 9.91579C1.40916 9.95264 1.44601 9.98382 1.48995 10.0207L1.61326 10.1142C1.65578 10.1454 1.6983 10.1709 1.74933 10.195C1.79518 10.2214 1.84305 10.2442 1.89248 10.263C1.92933 10.2815 1.97327 10.2942 2.01579 10.3056C2.05831 10.3169 2.09658 10.3311 2.12067 10.3367C2.10225 10.6712 2.09516 10.9887 2.14618 11.0993C2.20288 11.2226 2.47501 10.8442 2.74714 10.4119C2.71029 10.8399 2.68478 11.3416 2.74714 11.489C2.8095 11.6364 3.18652 11.1602 3.50968 10.6273C7.90346 9.61106 11.9146 12.6484 12.3355 16.9373C12.2547 16.2684 11.4312 15.8956 11.0528 15.9877C10.8686 16.4469 10.5511 17.0366 10.0422 17.4008C10.0848 16.9898 10.0663 16.5702 9.97988 16.1606C9.84123 16.7312 9.57899 17.2644 9.21168 17.7226C8.62348 17.7651 8.03528 17.4816 7.72346 17.0536C7.69795 17.0351 7.69228 16.9969 7.67385 16.9728L7.62424 16.8424C7.60582 16.7999 7.59306 16.7573 7.58739 16.712C7.58172 16.6666 7.58172 16.6269 7.58172 16.5759V16.4824C7.58739 16.4399 7.60015 16.3973 7.61291 16.352L7.65543 16.2216C7.68094 16.1791 7.69795 16.1365 7.72913 16.0912C7.83401 15.8077 7.83401 15.5526 7.64409 15.4109C7.60724 15.3853 7.57038 15.3683 7.52645 15.3485C7.50093 15.3428 7.46975 15.3301 7.44566 15.323L7.39605 15.3046L7.26565 15.2734C7.22328 15.2611 7.17937 15.2549 7.13526 15.2549C7.09024 15.2476 7.04478 15.2434 6.99919 15.2422C6.96801 15.2422 6.93683 15.2479 6.90565 15.2479C6.85964 15.2475 6.81383 15.2537 6.76958 15.2663L6.63919 15.2904L6.50879 15.3329L6.38548 15.3896L6.26784 15.452C4.82214 16.3945 5.68673 18.5985 6.67037 19.2391C6.29902 19.3072 5.91917 19.3879 5.8157 19.4687C6.07083 19.6416 6.34863 19.7805 6.6406 19.8968L7.64409 20.1802C8.15858 20.2936 8.67875 20.3291 9.20601 20.2979C10.5453 20.1998 11.811 19.6475 12.7938 18.7323C13.7765 17.8171 14.4174 16.5938 14.6104 15.2649L14.6472 15.4264L14.7039 15.7737L14.7294 15.9409L14.7436 16.1252L14.7578 16.3293V16.4285C14.7578 16.4597 14.7634 16.4965 14.7634 16.5277C14.7634 16.5589 14.7578 16.6014 14.7578 16.6411V16.7262C14.7578 16.7687 14.7521 16.8069 14.7521 16.8495C14.7521 16.8736 14.7521 16.8991 14.7464 16.9303L14.7408 17.0663C14.7351 17.0847 14.7351 17.1032 14.7351 17.123L14.7167 17.2647C14.7167 17.2832 14.7167 17.3016 14.711 17.3214L14.6869 17.5014V17.5156L14.6501 17.6885L14.6132 17.8728L14.5636 18.0656L14.514 18.2583L14.4516 18.4567L14.3156 18.8167L14.2419 18.9968L14.1568 19.1697C14.1511 19.1881 14.1426 19.2008 14.1384 19.2122C13.7231 20.0428 13.1278 20.7571 12.3837 21.3127C12.3341 21.3439 12.2845 21.3807 12.2349 21.4176C12.2207 21.4318 12.2037 21.436 12.1924 21.4488L12.0563 21.5423L12.0747 21.5792H12.0804L12.3412 21.5423H12.3469L12.8288 21.4573C12.8713 21.4516 12.9223 21.4388 12.9648 21.4261L13.0499 21.4077L13.1803 21.3836L13.2936 21.3524C13.913 21.2036 14.5126 20.9981 15.0908 20.7571C14.1058 22.1036 12.7848 23.1864 11.2413 23.8994C11.9543 23.8498 12.6672 23.7321 13.3532 23.5337C15.8505 22.7967 17.9525 21.1171 19.2111 18.8536C18.9559 20.2887 18.3867 21.6497 17.5443 22.8392C18.1452 22.4423 18.6966 21.9845 19.1997 21.4644C20.587 20.0159 21.4976 18.1774 21.8091 16.1961C22.0217 17.174 22.0812 18.186 21.9891 19.1838C26.4637 12.9418 22.3604 6.47021 20.6426 4.76655C20.6369 4.75238 20.6284 4.74813 20.6284 4.73537C20.6143 4.80907 20.61 4.88419 20.6043 4.95789C20.5859 5.09963 20.5675 5.23711 20.542 5.37318C20.5165 5.50924 20.4739 5.64531 20.4371 5.78421C20.4002 5.92311 20.3435 6.05067 20.2883 6.18107C20.233 6.31146 20.1706 6.43619 20.104 6.5595C20.0357 6.68073 19.9614 6.79852 19.8815 6.91242C19.8007 7.03006 19.7142 7.14203 19.6264 7.24691C19.5339 7.3548 19.4364 7.45838 19.3344 7.55731C19.272 7.61401 19.2168 7.6622 19.1544 7.71322L19.0127 7.83653C18.902 7.92434 18.786 8.00528 18.6654 8.0789C18.5471 8.15525 18.425 8.22573 18.2997 8.29008C18.1693 8.35245 18.0389 8.40773 17.9085 8.463C17.7766 8.51295 17.6422 8.55646 17.506 8.5934C17.3699 8.63025 17.2268 8.66143 17.0907 8.68694C16.9547 8.71246 16.8073 8.72379 16.6698 8.73655C16.5706 8.74222 16.4713 8.75072 16.3863 8.75072C16.2446 8.75072 16.1028 8.73655 15.9654 8.72521C15.8279 8.71387 15.6819 8.69403 15.543 8.66285C15.4023 8.6374 15.2636 8.60236 15.1277 8.55796H15.122C15.2581 8.54379 15.3942 8.53245 15.5331 8.50836C15.672 8.48426 15.8123 8.45166 15.9483 8.41481C16.0844 8.37796 16.2205 8.33402 16.3509 8.28442C16.4813 8.23481 16.6173 8.17103 16.7421 8.1115C16.8691 8.04956 16.993 7.98144 17.1134 7.9074C17.231 7.82661 17.3487 7.74582 17.4607 7.65936C17.5717 7.57295 17.6773 7.47969 17.7767 7.38015C17.8816 7.2866 17.9752 7.18172 18.0687 7.07683C18.1622 6.97195 18.2487 6.85431 18.3295 6.74234C18.3437 6.72391 18.355 6.69982 18.3663 6.67997L18.5463 6.3965C18.6144 6.27319 18.6767 6.14847 18.7306 6.01807C18.7845 5.88768 18.8355 5.75728 18.8794 5.62121C18.9234 5.48515 18.9531 5.35475 18.9843 5.21869C19.0155 5.08262 19.0339 4.93947 19.0467 4.8034C19.0594 4.66734 19.0708 4.51993 19.0708 4.38245C19.0708 4.28323 19.0651 4.18402 19.0566 4.09898C19.0424 3.95724 19.0254 3.81976 19.007 3.68369C18.9823 3.54388 18.9511 3.4053 18.9134 3.26841C18.8709 3.13801 18.8284 3.00195 18.7774 2.87155C18.7264 2.74116 18.664 2.61076 18.6045 2.48887C18.5449 2.36698 18.4684 2.24083 18.3919 2.12319C18.3153 2.00555 18.2303 1.89358 18.1438 1.78303L17.8603 1.46696C17.808 1.41392 17.7541 1.3624 17.6988 1.31247C17.421 1.09661 17.1335 0.893713 16.837 0.704423C16.7945 0.680328 16.7562 0.661903 16.7137 0.64206C16.5096 0.511664 16.3169 0.443631 16.1255 0.381267L16.1043 0.360007Z" fill="#EA2845"/>
</g>
<defs>
<clipPath id="clip0_1_423">
<rect width="24" height="24" fill="white"/>
</clipPath>
</defs>
</svg>
